<svg xmlns="http://www.w3.org/2000/svg" viewBox="0 1.979 107.765 34.52" width="107.765" height="34.52">
  <path style="fill: #ffffff;" d="M 33.964 26.926 L 26.214 19.127 L 32.8 12.481 C 34.06 11.21 34.057 9.142 32.794 7.872 L 29.403 4.459 C 28.792 3.845 27.979 3.507 27.114 3.507 C 26.249 3.507 25.437 3.845 24.828 4.459 L 18.242 11.106 L 10.492 3.307 C 10.188 3.001 9.777 2.83 9.348 2.83 C 8.919 2.83 8.508 3.001 8.205 3.307 L 2.54 9.024 C 1.909 9.661 1.91 10.692 2.543 11.329 L 10.293 19.127 L 2.565 26.926 C 2.262 27.232 2.092 27.646 2.093 28.079 L 2.101 33.795 C 2.102 34.696 2.827 35.425 3.72 35.425 L 9.394 35.425 C 9.823 35.425 10.234 35.254 10.537 34.948 L 18.265 27.149 L 26.015 34.948 C 26.648 35.584 27.671 35.584 28.302 34.948 L 33.967 29.231 C 34.271 28.925 34.44 28.511 34.44 28.078 C 34.439 27.646 34.268 27.232 33.964 26.926 Z M 25.974 5.612 C 26.288 5.295 26.702 5.136 27.117 5.136 C 27.531 5.136 27.946 5.295 28.261 5.612 L 31.652 9.024 C 32.282 9.658 32.284 10.695 31.655 11.329 L 30.548 12.446 L 24.867 6.729 L 25.974 5.612 Z M 25.923 10.094 L 27.208 11.386 L 8.161 30.606 L 6.877 29.314 L 25.923 10.094 Z M 3.685 10.176 L 9.351 4.459 L 10.189 5.303 L 8.366 7.143 C 8.05 7.461 8.051 7.977 8.367 8.295 C 8.525 8.455 8.732 8.534 8.939 8.534 C 9.147 8.534 9.353 8.455 9.511 8.295 L 11.335 6.455 L 12.619 7.748 L 11.603 8.773 C 11.288 9.091 11.288 9.607 11.605 9.925 C 11.763 10.084 11.97 10.164 12.177 10.164 C 12.384 10.164 12.591 10.084 12.749 9.925 L 13.765 8.9 L 15.049 10.192 L 13.226 12.032 C 12.91 12.351 12.911 12.866 13.227 13.185 C 13.385 13.344 13.593 13.423 13.8 13.423 C 14.007 13.423 14.214 13.344 14.371 13.185 L 16.195 11.345 L 17.102 12.258 L 11.435 17.975 L 3.685 10.176 Z M 23.725 7.881 L 24.778 8.941 L 5.732 28.161 L 4.679 27.101 L 23.725 7.881 Z M 3.718 33.795 L 3.711 28.429 L 9.044 33.795 L 3.718 33.795 Z M 10.36 32.818 L 9.306 31.758 L 28.353 12.538 L 29.406 13.598 L 10.36 32.818 Z M 27.157 33.795 L 19.407 25.997 L 25.072 20.28 L 25.98 21.193 L 24.157 23.033 C 23.999 23.192 23.92 23.401 23.921 23.609 C 23.921 23.818 24 24.027 24.158 24.186 C 24.474 24.504 24.986 24.504 25.302 24.186 L 27.125 22.346 L 28.409 23.638 L 27.394 24.663 C 27.236 24.822 27.157 25.031 27.158 25.24 C 27.158 25.448 27.237 25.657 27.395 25.816 C 27.711 26.134 28.223 26.134 28.539 25.816 L 29.555 24.791 L 30.839 26.083 L 29.015 27.923 C 28.858 28.083 28.779 28.291 28.78 28.5 C 28.78 28.708 28.859 28.917 29.017 29.076 C 29.333 29.395 29.845 29.395 30.161 29.076 L 31.984 27.236 L 32.822 28.078 L 27.157 33.795 Z"/>
  <path style="fill: rgb(255, 255, 255);" d="M 64.859 25.608 C 65.001 25.762 65.071 25.974 65.071 26.241 C 65.071 26.425 65.026 26.596 64.933 26.758 C 64.841 26.921 64.716 27.051 64.561 27.149 C 64.362 27.262 64.169 27.318 63.985 27.318 C 63.657 27.318 63.345 27.135 63.047 26.769 L 58.528 21.321 L 53.987 26.769 C 53.689 27.135 53.377 27.318 53.051 27.318 C 52.864 27.318 52.673 27.262 52.474 27.149 C 52.318 27.051 52.193 26.921 52.101 26.758 C 52.009 26.596 51.963 26.425 51.963 26.241 C 51.963 25.974 52.035 25.762 52.176 25.608 L 57.12 19.633 L 52.452 13.995 C 52.254 13.756 52.155 13.495 52.155 13.214 C 52.155 13.031 52.197 12.863 52.284 12.707 C 52.368 12.553 52.482 12.432 52.623 12.349 C 52.836 12.221 53.043 12.159 53.242 12.159 C 53.597 12.159 53.918 12.341 54.201 12.707 L 58.528 17.923 L 62.833 12.707 C 63.118 12.341 63.438 12.159 63.793 12.159 C 63.992 12.159 64.198 12.221 64.411 12.349 C 64.552 12.448 64.666 12.574 64.752 12.729 C 64.837 12.883 64.881 13.045 64.881 13.214 C 64.881 13.509 64.788 13.77 64.602 13.995 L 59.915 19.633 L 64.859 25.608 Z M 74.47 27.339 C 72.894 27.339 71.511 27.023 70.324 26.388 C 69.138 25.755 68.224 24.862 67.586 23.707 C 66.946 22.553 66.625 21.231 66.625 19.737 C 66.625 18.246 66.946 16.923 67.586 15.769 C 68.224 14.615 69.138 13.721 70.324 13.087 C 71.511 12.453 72.894 12.137 74.47 12.137 C 76.047 12.137 77.429 12.453 78.617 13.087 C 79.802 13.721 80.716 14.615 81.355 15.769 C 81.995 16.923 82.313 18.246 82.313 19.737 C 82.313 21.231 81.995 22.553 81.355 23.707 C 80.716 24.862 79.802 25.755 78.617 26.388 C 77.429 27.023 76.047 27.339 74.47 27.339 Z M 74.47 25.418 C 76.133 25.418 77.446 24.911 78.414 23.898 C 79.38 22.884 79.862 21.498 79.862 19.737 C 79.862 17.964 79.369 16.575 78.381 15.567 C 77.394 14.562 76.047 14.059 74.343 14.059 C 73.263 14.059 72.325 14.291 71.529 14.756 C 70.733 15.219 70.122 15.881 69.697 16.739 C 69.269 17.599 69.056 18.599 69.056 19.737 C 69.056 20.905 69.278 21.917 69.716 22.767 C 70.158 23.619 70.782 24.274 71.593 24.731 C 72.403 25.189 73.363 25.418 74.47 25.418 Z M 86.557 27.339 C 86.188 27.339 85.893 27.24 85.673 27.042 C 85.453 26.847 85.343 26.572 85.343 26.22 L 85.343 13.256 C 85.343 12.904 85.453 12.63 85.673 12.432 C 85.893 12.236 86.188 12.137 86.557 12.137 C 86.911 12.137 87.205 12.24 87.431 12.444 C 87.659 12.647 87.772 12.918 87.772 13.256 L 87.772 26.22 C 87.772 26.558 87.659 26.829 87.431 27.033 C 87.205 27.237 86.911 27.339 86.557 27.339 Z M 94.337 27.128 C 93.328 27.128 92.543 26.864 91.981 26.335 C 91.421 25.808 91.141 25.073 91.141 24.13 L 91.141 15.283 C 91.141 14.368 91.409 13.65 91.95 13.13 C 92.491 12.609 93.243 12.349 94.208 12.349 L 97.193 12.349 C 98.785 12.349 100.16 12.647 101.317 13.246 C 102.476 13.844 103.367 14.699 103.992 15.811 C 104.618 16.923 104.932 18.24 104.932 19.76 C 104.932 21.278 104.623 22.592 104.004 23.698 C 103.386 24.802 102.494 25.65 101.328 26.241 C 100.163 26.833 98.785 27.128 97.193 27.128 L 94.337 27.128 Z M 96.98 25.249 C 98.8 25.249 100.167 24.788 101.084 23.867 C 102 22.943 102.457 21.576 102.457 19.76 C 102.457 17.945 101.996 16.568 101.073 15.631 C 100.149 14.696 98.785 14.228 96.98 14.228 L 94.55 14.228 C 94.237 14.228 93.996 14.327 93.826 14.523 C 93.655 14.72 93.571 14.988 93.571 15.325 L 93.571 24.15 C 93.571 24.488 93.655 24.756 93.826 24.953 C 93.996 25.151 94.237 25.249 94.55 25.249 L 96.98 25.249 Z"/>
</svg>