<svg xmlns="http://www.w3.org/2000/svg" viewBox="48.423 17.138 46.307 14.321" width="46.307" height="14.321">
  <path style="fill: #fff;" d="M 59.822 29.487 C 59.944 29.625 60.005 29.813 60.005 30.052 C 60.005 30.215 59.965 30.368 59.886 30.512 C 59.806 30.657 59.7 30.773 59.565 30.86 C 59.394 30.961 59.229 31.011 59.071 31.011 C 58.79 31.011 58.521 30.848 58.265 30.522 L 54.382 25.669 L 50.481 30.522 C 50.224 30.848 49.956 31.011 49.675 31.011 C 49.516 31.011 49.351 30.961 49.18 30.86 C 49.046 30.773 48.939 30.657 48.86 30.512 C 48.781 30.368 48.741 30.215 48.741 30.052 C 48.741 29.813 48.802 29.625 48.924 29.487 L 53.173 24.164 L 49.162 19.142 C 48.991 18.929 48.906 18.697 48.906 18.446 C 48.906 18.283 48.942 18.133 49.016 17.995 C 49.089 17.857 49.187 17.75 49.309 17.675 C 49.492 17.562 49.669 17.506 49.84 17.506 C 50.145 17.506 50.42 17.669 50.664 17.995 L 54.382 22.641 L 58.082 17.995 C 58.326 17.669 58.601 17.506 58.906 17.506 C 59.077 17.506 59.254 17.562 59.437 17.675 C 59.559 17.763 59.657 17.876 59.73 18.014 C 59.803 18.152 59.84 18.296 59.84 18.446 C 59.84 18.71 59.761 18.942 59.602 19.142 L 55.573 24.164 L 59.822 29.487 Z M 68.08 31.03 C 66.725 31.03 65.538 30.748 64.518 30.183 C 63.499 29.619 62.714 28.823 62.165 27.794 C 61.615 26.766 61.34 25.588 61.34 24.258 C 61.34 22.929 61.615 21.75 62.165 20.722 C 62.714 19.694 63.499 18.898 64.518 18.333 C 65.538 17.769 66.725 17.487 68.08 17.487 C 69.436 17.487 70.623 17.769 71.643 18.333 C 72.662 18.898 73.447 19.694 73.996 20.722 C 74.546 21.75 74.82 22.929 74.82 24.258 C 74.82 25.588 74.546 26.766 73.996 27.794 C 73.447 28.823 72.662 29.619 71.643 30.183 C 70.623 30.748 69.436 31.03 68.08 31.03 Z M 68.08 29.318 C 69.509 29.318 70.638 28.867 71.469 27.964 C 72.299 27.061 72.714 25.826 72.714 24.258 C 72.714 22.678 72.29 21.44 71.441 20.543 C 70.593 19.647 69.436 19.199 67.971 19.199 C 67.043 19.199 66.237 19.405 65.553 19.819 C 64.869 20.233 64.344 20.822 63.978 21.587 C 63.611 22.352 63.428 23.243 63.428 24.258 C 63.428 25.299 63.618 26.199 63.996 26.957 C 64.375 27.716 64.912 28.299 65.608 28.707 C 66.304 29.114 67.128 29.318 68.08 29.318 Z M 78.466 31.03 C 78.149 31.03 77.895 30.942 77.706 30.766 C 77.517 30.591 77.422 30.346 77.422 30.033 L 77.422 18.484 C 77.422 18.17 77.517 17.926 77.706 17.75 C 77.895 17.575 78.149 17.487 78.466 17.487 C 78.771 17.487 79.022 17.578 79.217 17.76 C 79.412 17.941 79.51 18.183 79.51 18.484 L 79.51 30.033 C 79.51 30.334 79.412 30.575 79.217 30.757 C 79.022 30.939 78.771 31.03 78.466 31.03 Z M 85.151 30.842 C 84.284 30.842 83.609 30.606 83.127 30.136 C 82.645 29.666 82.404 29.011 82.404 28.171 L 82.404 20.29 C 82.404 19.474 82.636 18.835 83.1 18.371 C 83.564 17.907 84.211 17.675 85.041 17.675 L 87.605 17.675 C 88.973 17.675 90.154 17.941 91.149 18.474 C 92.144 19.007 92.91 19.769 93.448 20.76 C 93.985 21.75 94.254 22.923 94.254 24.277 C 94.254 25.631 93.988 26.801 93.457 27.785 C 92.926 28.769 92.16 29.525 91.158 30.052 C 90.157 30.578 88.973 30.842 87.605 30.842 L 85.151 30.842 Z M 87.422 29.168 C 88.985 29.168 90.16 28.757 90.948 27.936 C 91.735 27.114 92.129 25.895 92.129 24.277 C 92.129 22.66 91.732 21.434 90.939 20.6 C 90.145 19.766 88.973 19.349 87.422 19.349 L 85.334 19.349 C 85.065 19.349 84.858 19.437 84.711 19.612 C 84.565 19.788 84.492 20.026 84.492 20.327 L 84.492 28.189 C 84.492 28.49 84.565 28.729 84.711 28.904 C 84.858 29.08 85.065 29.168 85.334 29.168 Z" />
</svg>