<svg xmlns="http://www.w3.org/2000/svg" viewBox="0.858 0.59 94.314 48.484" width="94.314" height="48.484">
  <mask id="mask1">
    <rect x="55.367" y="45.864" width="53.871" height="48.763" style="fill: #ffffff;"/>
    <path d="M 73.37 51.3 L 101.431 79.681 L 91.91 88.998 L 63.798 60.663 L 73.37 51.3 Z" style=""/>
    <path d="M 70.704 51.213 L 101.184 80.997 L 91.699 90.451 L 61.517 60.719 L 70.704 51.213 Z" style="" transform="matrix(0, 1, -1, 0, 152.154003, -10.424)"/>
  </mask>
  <g mask="url(#mask1)" transform="matrix(1, 0, 0, 1, -57.404316, -45.255585)">
    <path style="fill: #ffffff66;" d="M 105.894 69.699 C 105.894 70.738 104.868 71.864 103.585 72.538 C 102.369 73.178 100.589 73.76 98.499 74.225 C 94.355 75.146 88.602 75.719 82.318 75.719 C 76.034 75.719 70.281 75.146 66.137 74.225 C 64.047 73.76 62.267 73.178 61.051 72.538 C 59.768 71.864 58.742 70.738 58.742 69.699 C 58.742 68.66 59.768 67.534 61.051 66.86 C 62.267 66.22 64.047 65.638 66.137 65.173 C 70.281 64.252 76.034 63.679 82.318 63.679 C 88.602 63.679 94.355 64.252 98.499 65.173 C 100.589 65.638 102.369 66.22 103.585 66.86 C 104.868 67.534 105.894 68.66 105.894 69.699 Z M 102.655 68.63 C 101.586 68.068 100.06 67.569 98.065 67.125 C 94.037 66.23 88.503 65.679 82.318 65.679 C 76.133 65.679 70.599 66.23 66.571 67.125 C 64.576 67.569 63.05 68.068 61.981 68.63 C 60.98 69.157 60.742 69.352 60.742 69.699 C 60.742 70.046 60.98 70.241 61.981 70.768 C 63.05 71.33 64.576 71.829 66.571 72.273 C 70.599 73.168 76.133 73.719 82.318 73.719 C 88.503 73.719 94.037 73.168 98.065 72.273 C 100.06 71.829 101.586 71.33 102.655 70.768 C 103.656 70.241 103.894 70.046 103.894 69.699 C 103.894 69.352 103.656 69.157 102.655 68.63 Z" />
    <path style="fill: #ffffff66;" d="M 105.894 69.699 C 105.894 70.738 104.868 71.864 103.585 72.538 C 102.369 73.178 100.589 73.76 98.499 74.225 C 94.355 75.146 88.602 75.719 82.318 75.719 C 76.034 75.719 70.281 75.146 66.137 74.225 C 64.047 73.76 62.267 73.178 61.051 72.538 C 59.768 71.864 58.742 70.738 58.742 69.699 C 58.742 68.66 59.768 67.534 61.051 66.86 C 62.267 66.22 64.047 65.638 66.137 65.173 C 70.281 64.252 76.034 63.679 82.318 63.679 C 88.602 63.679 94.355 64.252 98.499 65.173 C 100.589 65.638 102.369 66.22 103.585 66.86 C 104.868 67.534 105.894 68.66 105.894 69.699 Z M 102.655 68.63 C 101.586 68.068 100.06 67.569 98.065 67.125 C 94.037 66.23 88.503 65.679 82.318 65.679 C 76.133 65.679 70.599 66.23 66.571 67.125 C 64.576 67.569 63.05 68.068 61.981 68.63 C 60.98 69.157 60.742 69.352 60.742 69.699 C 60.742 70.046 60.98 70.241 61.981 70.768 C 63.05 71.33 64.576 71.829 66.571 72.273 C 70.599 73.168 76.133 73.719 82.318 73.719 C 88.503 73.719 94.037 73.168 98.065 72.273 C 100.06 71.829 101.586 71.33 102.655 70.768 C 103.656 70.241 103.894 70.046 103.894 69.699 C 103.894 69.352 103.656 69.157 102.655 68.63 Z" transform="matrix(0, -1, 1, 0, 12.431485, 152.360825)"/>
  </g>
  <path style="fill: #ffffff;" d="M 40.602 32.349 L 32.852 24.55 L 39.438 17.904 C 40.698 16.633 40.695 14.565 39.432 13.295 L 36.041 9.882 C 35.43 9.268 34.617 8.93 33.752 8.93 C 32.887 8.93 32.075 9.268 31.466 9.882 L 24.88 16.529 L 17.13 8.73 C 16.826 8.424 16.415 8.253 15.986 8.253 C 15.557 8.253 15.146 8.424 14.843 8.73 L 9.178 14.447 C 8.547 15.084 8.548 16.115 9.181 16.752 L 16.931 24.55 L 9.203 32.349 C 8.9 32.655 8.73 33.069 8.731 33.502 L 8.739 39.218 C 8.74 40.119 9.465 40.848 10.358 40.848 L 16.032 40.848 C 16.461 40.848 16.872 40.677 17.175 40.371 L 24.903 32.572 L 32.653 40.371 C 33.286 41.007 34.309 41.007 34.94 40.371 L 40.605 34.654 C 40.909 34.348 41.078 33.934 41.078 33.501 C 41.077 33.069 40.906 32.655 40.602 32.349 Z M 32.612 11.035 C 32.926 10.718 33.34 10.559 33.755 10.559 C 34.169 10.559 34.584 10.718 34.899 11.035 L 38.29 14.447 C 38.92 15.081 38.922 16.118 38.293 16.752 L 37.186 17.869 L 31.505 12.152 L 32.612 11.035 Z M 32.561 15.517 L 33.846 16.809 L 14.799 36.029 L 13.515 34.737 L 32.561 15.517 Z M 10.323 15.599 L 15.989 9.882 L 16.827 10.726 L 15.004 12.566 C 14.688 12.884 14.689 13.4 15.005 13.718 C 15.163 13.878 15.37 13.957 15.577 13.957 C 15.785 13.957 15.991 13.878 16.149 13.718 L 17.973 11.878 L 19.257 13.171 L 18.241 14.196 C 17.926 14.514 17.926 15.03 18.243 15.348 C 18.401 15.507 18.608 15.587 18.815 15.587 C 19.022 15.587 19.229 15.507 19.387 15.348 L 20.403 14.323 L 21.687 15.615 L 19.864 17.455 C 19.548 17.774 19.549 18.289 19.865 18.608 C 20.023 18.767 20.231 18.846 20.438 18.846 C 20.645 18.846 20.852 18.767 21.009 18.608 L 22.833 16.768 L 23.74 17.681 L 18.073 23.398 L 10.323 15.599 Z M 30.363 13.304 L 31.416 14.364 L 12.37 33.584 L 11.317 32.524 L 30.363 13.304 Z M 10.356 39.218 L 10.349 33.852 L 15.682 39.218 L 10.356 39.218 Z M 16.998 38.241 L 15.944 37.181 L 34.991 17.961 L 36.044 19.021 L 16.998 38.241 Z M 33.795 39.218 L 26.045 31.42 L 31.71 25.703 L 32.618 26.616 L 30.795 28.456 C 30.637 28.615 30.558 28.824 30.559 29.032 C 30.559 29.241 30.638 29.45 30.796 29.609 C 31.112 29.927 31.624 29.927 31.94 29.609 L 33.763 27.769 L 35.047 29.061 L 34.032 30.086 C 33.874 30.245 33.795 30.454 33.796 30.663 C 33.796 30.871 33.875 31.08 34.033 31.239 C 34.349 31.557 34.861 31.557 35.177 31.239 L 36.193 30.214 L 37.477 31.506 L 35.653 33.346 C 35.496 33.506 35.417 33.714 35.418 33.923 C 35.418 34.131 35.497 34.34 35.655 34.499 C 35.971 34.818 36.483 34.818 36.799 34.499 L 38.622 32.659 L 39.46 33.501 L 33.795 39.218 Z" />
  <path style="fill: #ffffff;" d="M 59.822 29.487 C 59.944 29.625 60.005 29.813 60.005 30.052 C 60.005 30.215 59.965 30.368 59.886 30.512 C 59.806 30.657 59.7 30.773 59.565 30.86 C 59.394 30.961 59.229 31.011 59.071 31.011 C 58.79 31.011 58.521 30.848 58.265 30.522 L 54.382 25.669 L 50.481 30.522 C 50.224 30.848 49.956 31.011 49.675 31.011 C 49.516 31.011 49.351 30.961 49.18 30.86 C 49.046 30.773 48.939 30.657 48.86 30.512 C 48.781 30.368 48.741 30.215 48.741 30.052 C 48.741 29.813 48.802 29.625 48.924 29.487 L 53.173 24.164 L 49.162 19.142 C 48.991 18.929 48.906 18.697 48.906 18.446 C 48.906 18.283 48.942 18.133 49.016 17.995 C 49.089 17.857 49.187 17.75 49.309 17.675 C 49.492 17.562 49.669 17.506 49.84 17.506 C 50.145 17.506 50.42 17.669 50.664 17.995 L 54.382 22.641 L 58.082 17.995 C 58.326 17.669 58.601 17.506 58.906 17.506 C 59.077 17.506 59.254 17.562 59.437 17.675 C 59.559 17.763 59.657 17.876 59.73 18.014 C 59.803 18.152 59.84 18.296 59.84 18.446 C 59.84 18.71 59.761 18.942 59.602 19.142 L 55.573 24.164 L 59.822 29.487 Z M 68.08 31.03 C 66.725 31.03 65.538 30.748 64.518 30.183 C 63.499 29.619 62.714 28.823 62.165 27.794 C 61.615 26.766 61.34 25.588 61.34 24.258 C 61.34 22.929 61.615 21.75 62.165 20.722 C 62.714 19.694 63.499 18.898 64.518 18.333 C 65.538 17.769 66.725 17.487 68.08 17.487 C 69.436 17.487 70.623 17.769 71.643 18.333 C 72.662 18.898 73.447 19.694 73.996 20.722 C 74.546 21.75 74.82 22.929 74.82 24.258 C 74.82 25.588 74.546 26.766 73.996 27.794 C 73.447 28.823 72.662 29.619 71.643 30.183 C 70.623 30.748 69.436 31.03 68.08 31.03 Z M 68.08 29.318 C 69.509 29.318 70.638 28.867 71.469 27.964 C 72.299 27.061 72.714 25.826 72.714 24.258 C 72.714 22.678 72.29 21.44 71.441 20.543 C 70.593 19.647 69.436 19.199 67.971 19.199 C 67.043 19.199 66.237 19.405 65.553 19.819 C 64.869 20.233 64.344 20.822 63.978 21.587 C 63.611 22.352 63.428 23.243 63.428 24.258 C 63.428 25.299 63.618 26.199 63.996 26.957 C 64.375 27.716 64.912 28.299 65.608 28.707 C 66.304 29.114 67.128 29.318 68.08 29.318 Z M 78.466 31.03 C 78.149 31.03 77.895 30.942 77.706 30.766 C 77.517 30.591 77.422 30.346 77.422 30.033 L 77.422 18.484 C 77.422 18.17 77.517 17.926 77.706 17.75 C 77.895 17.575 78.149 17.487 78.466 17.487 C 78.771 17.487 79.022 17.578 79.217 17.76 C 79.412 17.941 79.51 18.183 79.51 18.484 L 79.51 30.033 C 79.51 30.334 79.412 30.575 79.217 30.757 C 79.022 30.939 78.771 31.03 78.466 31.03 Z M 85.151 30.842 C 84.284 30.842 83.609 30.606 83.127 30.136 C 82.645 29.666 82.404 29.011 82.404 28.171 L 82.404 20.29 C 82.404 19.474 82.636 18.835 83.1 18.371 C 83.564 17.907 84.211 17.675 85.041 17.675 L 87.605 17.675 C 88.973 17.675 90.154 17.941 91.149 18.474 C 92.144 19.007 92.91 19.769 93.448 20.76 C 93.985 21.75 94.254 22.923 94.254 24.277 C 94.254 25.631 93.988 26.801 93.457 27.785 C 92.926 28.769 92.16 29.525 91.158 30.052 C 90.157 30.578 88.973 30.842 87.605 30.842 L 85.151 30.842 Z M 87.422 29.168 C 88.985 29.168 90.16 28.757 90.948 27.936 C 91.735 27.114 92.129 25.895 92.129 24.277 C 92.129 22.66 91.732 21.434 90.939 20.6 C 90.145 19.766 88.973 19.349 87.422 19.349 L 85.334 19.349 C 85.065 19.349 84.858 19.437 84.711 19.612 C 84.565 19.788 84.492 20.026 84.492 20.327 L 84.492 28.189 C 84.492 28.49 84.565 28.729 84.711 28.904 C 84.858 29.08 85.065 29.168 85.334 29.168 Z" />
</svg>