<svg xmlns="http://www.w3.org/2000/svg" viewBox="52 52 34 34" width="250" height="250">
  <path d="M 84.654 76.539 L 76.904 68.74 L 83.49 62.094 C 84.75 60.823 84.747 58.755 83.484 57.485 L 80.093 54.072 C 79.482 53.458 78.669 53.12 77.804 53.12 C 76.939 53.12 76.127 53.458 75.518 54.072 L 68.932 60.719 L 61.182 52.92 C 60.878 52.614 60.467 52.443 60.038 52.443 C 59.609 52.443 59.198 52.614 58.895 52.92 L 53.23 58.637 C 52.599 59.274 52.6 60.305 53.233 60.942 L 60.983 68.74 L 53.255 76.539 C 52.952 76.845 52.782 77.259 52.783 77.692 L 52.791 83.408 C 52.792 84.309 53.517 85.038 54.41 85.038 L 60.084 85.038 C 60.513 85.038 60.924 84.867 61.227 84.561 L 68.955 76.762 L 76.705 84.561 C 77.338 85.197 78.361 85.197 78.992 84.561 L 84.657 78.844 C 84.961 78.538 85.13 78.124 85.13 77.691 C 85.129 77.259 84.958 76.845 84.654 76.539 Z M 76.664 55.225 C 76.978 54.908 77.392 54.749 77.807 54.749 C 78.221 54.749 78.636 54.908 78.951 55.225 L 82.342 58.637 C 82.972 59.271 82.974 60.308 82.345 60.942 L 81.238 62.059 L 75.557 56.342 L 76.664 55.225 Z M 76.613 59.707 L 77.898 60.999 L 58.851 80.219 L 57.567 78.927 L 76.613 59.707 Z M 54.375 59.789 L 60.041 54.072 L 60.879 54.916 L 59.056 56.756 C 58.74 57.074 58.741 57.59 59.057 57.908 C 59.215 58.068 59.422 58.147 59.629 58.147 C 59.837 58.147 60.043 58.068 60.201 57.908 L 62.025 56.068 L 63.309 57.361 L 62.293 58.386 C 61.978 58.704 61.978 59.22 62.295 59.538 C 62.453 59.697 62.66 59.777 62.867 59.777 C 63.074 59.777 63.281 59.697 63.439 59.538 L 64.455 58.513 L 65.739 59.805 L 63.916 61.645 C 63.6 61.964 63.601 62.479 63.917 62.798 C 64.075 62.957 64.283 63.036 64.49 63.036 C 64.697 63.036 64.904 62.957 65.061 62.798 L 66.885 60.958 L 67.792 61.871 L 62.125 67.588 L 54.375 59.789 Z M 74.415 57.494 L 75.468 58.554 L 56.422 77.774 L 55.369 76.714 L 74.415 57.494 Z M 54.408 83.408 L 54.401 78.042 L 59.734 83.408 L 54.408 83.408 Z M 61.05 82.431 L 59.996 81.371 L 79.043 62.151 L 80.096 63.211 L 61.05 82.431 Z M 77.847 83.408 L 70.097 75.61 L 75.762 69.893 L 76.67 70.806 L 74.847 72.646 C 74.689 72.805 74.61 73.014 74.611 73.222 C 74.611 73.431 74.69 73.64 74.848 73.799 C 75.164 74.117 75.676 74.117 75.992 73.799 L 77.815 71.959 L 79.099 73.251 L 78.084 74.276 C 77.926 74.435 77.847 74.644 77.848 74.853 C 77.848 75.061 77.927 75.27 78.085 75.429 C 78.401 75.747 78.913 75.747 79.229 75.429 L 80.245 74.404 L 81.529 75.696 L 79.705 77.536 C 79.548 77.696 79.469 77.904 79.47 78.113 C 79.47 78.321 79.549 78.53 79.707 78.689 C 80.023 79.008 80.535 79.008 80.851 78.689 L 82.674 76.849 L 83.512 77.691 L 77.847 83.408 Z" style="fill: #4f2eb3;"/>
</svg>