<svg viewBox="55 45 47 47" xmlns="http://www.w3.org/2000/svg" xmlns:bx="https://boxy-svg.com">
  <g style="" transform="matrix(0.142053, 0, 0.0002, 0.14207, 48.330975, 29.899561)">
    <g style="" transform="matrix(0.59756, 0, 0, 0.582193, 65.501396, 120.71846)">
      <path d="M504.499,378.496L382.003,256L486.4,151.603c19.959-19.968,19.959-52.446,0-72.405L432.802,25.6
			c-9.651-9.651-22.511-14.967-36.207-14.967c-13.696,0-26.547,5.316-36.198,14.967L256,129.997L133.504,7.501
			C128.7,2.697,122.189,0,115.405,0c-6.792,0-13.303,2.697-18.099,7.501L7.501,97.297c-10.001,10.001-10.001,26.206,0,36.207
			L129.997,256L7.501,378.496C2.697,383.3,0,389.811,0,396.604V486.4C0,500.54,11.46,512,25.6,512h89.805
			c6.793,0,13.303-2.697,18.099-7.501L256,382.003l122.496,122.496c10.001,10.001,26.206,10.001,36.207,0l89.796-89.796
			c4.804-4.804,7.501-11.315,7.501-18.108C512,389.811,509.303,383.3,504.499,378.496z M378.496,43.708
			c4.983-4.984,11.546-7.475,18.108-7.475s13.124,2.492,18.099,7.467l53.598,53.598c9.958,9.958,9.958,26.249,0,36.207
			l-17.544,17.544l-89.805-89.796L378.496,43.708z M377.6,114.099l20.301,20.301L96,436.301L75.699,416L377.6,114.099z
			 M25.6,115.396L115.405,25.6l13.252,13.252L99.755,67.755c-5,5-5,13.099,0,18.099c2.5,2.5,5.777,3.746,9.054,3.746
			s6.554-1.246,9.054-3.746l28.902-28.902l20.301,20.301l-16.102,16.102c-5.001,5.001-5.001,13.099,0,18.099
			c2.5,2.5,5.777,3.746,9.054,3.746s6.554-1.246,9.054-3.746l16.102-16.102l20.301,20.301l-28.902,28.902
			c-5.001,5-5.001,13.099,0,18.099c2.5,2.5,5.777,3.746,9.054,3.746s6.554-1.246,9.054-3.746l28.902-28.902l14.345,14.345
			l-89.83,89.805L25.6,115.396z M342.852,79.351L359.501,96L57.6,397.901l-16.648-16.648L342.852,79.351z M25.6,486.4v-84.301
			l84.301,84.301H25.6z M130.748,471.049L114.099,454.4L416,152.499l16.649,16.649L130.748,471.049z M396.604,486.4L274.099,363.904
			l89.805-89.805l14.345,14.345l-28.902,28.902c-2.5,2.5-3.746,5.777-3.746,9.054c0,3.277,1.246,6.554,3.746,9.054
			c5,5.001,13.099,5.001,18.099,0l28.902-28.902l20.301,20.301l-16.102,16.102c-2.5,2.5-3.746,5.777-3.746,9.054
			c0,3.277,1.246,6.554,3.746,9.054c5,5,13.099,5,18.099,0l16.102-16.102l20.301,20.301l-28.902,28.902
			c-2.5,2.5-3.746,5.777-3.746,9.054c0,3.277,1.246,6.554,3.746,9.054c5.001,5,13.099,5,18.099,0l28.902-28.902l13.252,13.227
			L396.604,486.4z" style="fill: rgb(255, 255, 255);"></path>
    </g>
  </g>
</svg>